<mxfile host="app.diagrams.net" modified="2022-03-09T15:42:46.222Z" agent="5.0 (Windows NT 10.0; Win64; x64) AppleWebKit/537.36 (KHTML, like Gecko) Chrome/96.0.4664.174 YaBrowser/22.1.4.837 Yowser/2.5 Safari/537.36" etag="laUWG8NMYuaZ3k8I_8OK" version="16.6.4" type="github">
  <diagram id="9GgctxNKiFJZ-ea3XGBc" name="Page-1">
    <mxGraphModel dx="1582" dy="914" grid="1" gridSize="10" guides="1" tooltips="1" connect="1" arrows="1" fold="1" page="1" pageScale="1" pageWidth="1100" pageHeight="850" math="0" shadow="0">
      <root>
        <mxCell id="0" />
        <mxCell id="1" parent="0" />
        <mxCell id="MBVI6j7IBvgTUgdrwgCW-5" style="edgeStyle=orthogonalEdgeStyle;rounded=0;orthogonalLoop=1;jettySize=auto;html=1;exitX=1;exitY=0.5;exitDx=0;exitDy=0;entryX=0;entryY=0.5;entryDx=0;entryDy=0;" edge="1" parent="1" source="MBVI6j7IBvgTUgdrwgCW-1" target="MBVI6j7IBvgTUgdrwgCW-3">
          <mxGeometry relative="1" as="geometry" />
        </mxCell>
        <mxCell id="MBVI6j7IBvgTUgdrwgCW-7" style="edgeStyle=orthogonalEdgeStyle;rounded=0;orthogonalLoop=1;jettySize=auto;html=1;exitX=0.5;exitY=1;exitDx=0;exitDy=0;entryX=0.5;entryY=0;entryDx=0;entryDy=0;" edge="1" parent="1" source="MBVI6j7IBvgTUgdrwgCW-1" target="MBVI6j7IBvgTUgdrwgCW-6">
          <mxGeometry relative="1" as="geometry" />
        </mxCell>
        <mxCell id="MBVI6j7IBvgTUgdrwgCW-9" style="edgeStyle=orthogonalEdgeStyle;rounded=0;orthogonalLoop=1;jettySize=auto;html=1;exitX=0.5;exitY=1;exitDx=0;exitDy=0;entryX=0.5;entryY=0;entryDx=0;entryDy=0;" edge="1" parent="1" source="MBVI6j7IBvgTUgdrwgCW-1" target="MBVI6j7IBvgTUgdrwgCW-8">
          <mxGeometry relative="1" as="geometry" />
        </mxCell>
        <mxCell id="MBVI6j7IBvgTUgdrwgCW-11" style="edgeStyle=orthogonalEdgeStyle;rounded=0;orthogonalLoop=1;jettySize=auto;html=1;exitX=0.5;exitY=1;exitDx=0;exitDy=0;" edge="1" parent="1" source="MBVI6j7IBvgTUgdrwgCW-1" target="MBVI6j7IBvgTUgdrwgCW-10">
          <mxGeometry relative="1" as="geometry" />
        </mxCell>
        <mxCell id="MBVI6j7IBvgTUgdrwgCW-1" value="Авторизация" style="rounded=0;whiteSpace=wrap;html=1;" vertex="1" parent="1">
          <mxGeometry x="430" y="130" width="120" height="60" as="geometry" />
        </mxCell>
        <mxCell id="MBVI6j7IBvgTUgdrwgCW-4" style="edgeStyle=orthogonalEdgeStyle;rounded=0;orthogonalLoop=1;jettySize=auto;html=1;exitX=0;exitY=0.5;exitDx=0;exitDy=0;entryX=1;entryY=0.5;entryDx=0;entryDy=0;" edge="1" parent="1" source="MBVI6j7IBvgTUgdrwgCW-3" target="MBVI6j7IBvgTUgdrwgCW-1">
          <mxGeometry relative="1" as="geometry" />
        </mxCell>
        <mxCell id="MBVI6j7IBvgTUgdrwgCW-3" value="Регистрация" style="rounded=0;whiteSpace=wrap;html=1;" vertex="1" parent="1">
          <mxGeometry x="610" y="130" width="120" height="60" as="geometry" />
        </mxCell>
        <mxCell id="MBVI6j7IBvgTUgdrwgCW-6" value="Акции" style="rounded=0;whiteSpace=wrap;html=1;" vertex="1" parent="1">
          <mxGeometry x="430" y="230" width="120" height="60" as="geometry" />
        </mxCell>
        <mxCell id="MBVI6j7IBvgTUgdrwgCW-8" value="Открытые сделки" style="rounded=0;whiteSpace=wrap;html=1;" vertex="1" parent="1">
          <mxGeometry x="590" y="230" width="120" height="60" as="geometry" />
        </mxCell>
        <mxCell id="MBVI6j7IBvgTUgdrwgCW-10" value="Пополнить баланс" style="rounded=0;whiteSpace=wrap;html=1;" vertex="1" parent="1">
          <mxGeometry x="290" y="230" width="120" height="60" as="geometry" />
        </mxCell>
      </root>
    </mxGraphModel>
  </diagram>
</mxfile>
